<svg xmlns="http://www.w3.org/2000/svg" xmlns:xlink="http://www.w3.org/1999/xlink" version="1.1" id="Layer_1" x="0px" y="0px" width="100px" height="100px" viewBox="0 0 100 100" enable-background="new 0 0 100 100" xml:space="preserve">
<g>
	<g>
		<path d="M84.556,66.625H58.79c-2.619,0.662-3.825,3.566-3.825,6.29c0,3.092,1.559,6.42,4.981,6.42c0,0,23.689,0,25.503,0    c1.813,0,3.586-3.507,3.586-6.143C89.035,70.205,88.929,66.625,84.556,66.625z M89.01,52.643c-2.755,0-29.064,0-29.064,0    c-0.035,0-0.067-0.005-0.102-0.005l-0.002,0.005h-5.501c-2.619,0.662-3.825,3.566-3.825,6.29c0,3.092,1.559,6.42,4.982,6.42    c0,0,30.844,0,33.21,0s4.448-3.308,4.448-6.284C93.156,56.21,91.766,52.643,89.01,52.643z M80.6,80.605c-2.567,0-17.15,0-17.15,0    c-2.619,0.662-3.825,3.566-3.825,6.289c0,2.993,1.465,7.187,4.662,7.455l14.117,0.026c3.9,0,7.062-3.162,7.062-7.062    C85.465,84.182,83.167,80.605,80.6,80.605z M54.964,44.952c0,3.092,1.559,6.421,4.981,6.421c0,0,22.175,0,24.943,0    c2.77,0,4.146-3.567,4.146-6.426c0-3.9-3.161-7.061-7.061-7.061H59.946C56.523,37.886,54.964,41.854,54.964,44.952z     M59.526,80.605h-0.851c-4.296,0-6.252-3.987-6.252-7.691c0-2.344,0.783-4.798,2.442-6.29h-0.638    c-4.296,0-6.253-3.987-6.253-7.691c0-3.71,1.957-7.702,6.253-7.702h0.636c-1.658-1.49-2.44-3.939-2.44-6.279    c0-2.509,0.898-5.433,2.807-7.066h-2.972c3.543-4.685,6.426-9.853,8.146-15.479c0.705-2.402,0.946-3.604,1.212-6.006    c0.368-3.316-2.35-7.667-4.721-9.719c-2.372-2.052-3.987-1.027-4.957,2.289c-0.703,2.402-1.164,3.604-2.304,6.006    c-2.986,6.1-11.832,16.196-18.045,22.909H6.844v56.422h24.746v-2.436c1.862,1.518,4.236,2.433,6.828,2.433l21.546,0.039    c-1.961-1.743-2.88-4.911-2.88-7.449C57.083,84.551,57.866,82.097,59.526,80.605z M27.353,90.072H11.08v-47.95h16.273V90.072z"/>
	</g>
</g>
</svg>